<?xml version="1.0" standalone="no"?>
<!DOCTYPE svg PUBLIC "-//W3C//DTD SVG 20010904//EN"
 "http://www.w3.org/TR/2001/REC-SVG-20010904/DTD/svg10.dtd">
<svg version="1.0" xmlns="http://www.w3.org/2000/svg"
 width="16.000000pt" height="16.000000pt" viewBox="0 0 16.000000 16.000000"
 preserveAspectRatio="xMidYMid meet">
<metadata>
Created by potrace 1.11, written by Peter Selinger 2001-2013
</metadata>
<g transform="translate(0.000000,16.000000) scale(0.012903,-0.012903)"
fill="#000000" stroke="none">
<path d="M143 1182 c-142 -3 -143 -3 -143 -26 0 -19 8 -25 53 -35 28 -7 61
-14 72 -15 20 -3 20 -12 25 -383 l5 -381 -78 -16 c-69 -15 -77 -19 -77 -40 l0
-23 245 0 245 -1 0 23 c0 20 -9 24 -80 39 l-80 18 0 137 0 137 78 0 77 -1 67
-107 c170 -274 277 -404 353 -434 48 -18 160 -24 230 -12 101 18 105 19 105
45 0 14 -7 26 -17 29 -70 21 -158 60 -196 85 -58 38 -215 194 -351 348 l-48
54 53 17 c194 60 281 188 235 343 -29 97 -113 162 -251 193 -33 8 -295 11
-522 6z m432 -83 c116 -31 165 -92 161 -202 -3 -89 -37 -140 -120 -181 -52
-27 -71 -30 -172 -34 l-114 -4 0 215 0 216 33 3 c54 5 169 -2 212 -13z"/>
<path d="M18 152 c-24 -5 -26 -99 -3 -99 8 0 15 7 15 16 0 13 2 14 9 2 10 -15
41 -24 41 -12 0 4 -5 12 -12 19 -8 8 -8 15 1 25 23 29 -8 59 -51 49z m32 -32
c0 -5 -7 -10 -16 -10 -8 0 -12 5 -9 10 3 6 10 10 16 10 5 0 9 -4 9 -10z"/>
<path d="M128 153 c-26 -4 -28 -8 -28 -53 0 -48 1 -49 30 -48 35 1 37 6 13 24
-16 12 -16 13 -2 14 9 0 16 6 16 14 0 8 -6 12 -14 9 -7 -3 -13 0 -13 6 0 6 7
11 15 11 8 0 15 7 15 15 0 8 -1 14 -2 14 -2 -1 -15 -4 -30 -6z"/>
<path d="M213 152 c-22 -3 -39 -34 -34 -62 3 -21 31 -40 57 -40 23 0 57 37 48
52 -7 11 -54 10 -54 -2 0 -5 5 -10 12 -10 9 0 9 -3 -1 -13 -10 -10 -15 -8 -26
6 -21 29 -8 50 26 43 21 -4 29 -2 29 8 0 16 -25 23 -57 18z"/>
<path d="M369 139 c-1 -13 -2 -28 -4 -34 -1 -5 -3 -15 -3 -22 -4 -29 -32 1
-32 33 0 23 -5 34 -14 34 -11 0 -14 -10 -11 -42 5 -53 36 -73 74 -49 18 12 21
78 4 92 -10 9 -13 6 -14 -12z"/>
<path d="M418 139 c-2 -5 -2 -27 0 -48 3 -33 7 -38 28 -38 32 -1 40 13 16 26
-14 8 -18 19 -16 41 3 21 -1 30 -10 30 -8 0 -16 -5 -18 -11z"/>
<path d="M508 103 c-11 -33 -12 -49 -5 -52 6 -2 13 1 15 8 5 14 35 14 50 -1
21 -21 25 1 8 47 -24 61 -48 61 -68 -2z m42 -3 c0 -5 -4 -10 -10 -10 -5 0 -10
5 -10 10 0 6 5 10 10 10 6 0 10 -4 10 -10z"/>
<path d="M610 100 c0 -51 11 -64 29 -33 9 17 10 17 16 0 4 -9 13 -17 21 -17
17 0 18 12 2 28 -8 8 -8 15 1 25 19 24 2 47 -35 47 l-34 0 0 -50z m50 20 c0
-5 -4 -10 -10 -10 -5 0 -10 5 -10 10 0 6 5 10 10 10 6 0 10 -4 10 -10z"/>
</g>
</svg>
